<svg width="18" height="16" viewBox="0 0 18 16" fill="none" xmlns="http://www.w3.org/2000/svg">
<path fill-rule="evenodd" clip-rule="evenodd" d="M14 1V0H13V1H5V0H4V1H0V16H18V1H14ZM17 15H1V5H17V15ZM17 4H1V2H4V3H5V2H13V3H14V2H17V4ZM4 8C4 7.80222 4.05865 7.60888 4.16853 7.44443C4.27841 7.27998 4.43459 7.15181 4.61732 7.07612C4.80004 7.00043 5.00111 6.98063 5.19509 7.01921C5.38907 7.0578 5.56725 7.15304 5.70711 7.29289C5.84696 7.43275 5.9422 7.61093 5.98079 7.80491C6.01937 7.99889 5.99957 8.19996 5.92388 8.38268C5.84819 8.56541 5.72002 8.72159 5.55557 8.83147C5.39112 8.94135 5.19778 9 5 9C4.73478 9 4.48043 8.89464 4.29289 8.70711C4.10536 8.51957 4 8.26522 4 8ZM8 8C8 7.80222 8.05865 7.60888 8.16853 7.44443C8.27841 7.27998 8.43459 7.15181 8.61732 7.07612C8.80004 7.00043 9.00111 6.98063 9.19509 7.01921C9.38907 7.0578 9.56725 7.15304 9.70711 7.29289C9.84696 7.43275 9.9422 7.61093 9.98079 7.80491C10.0194 7.99889 9.99957 8.19996 9.92388 8.38268C9.84819 8.56541 9.72002 8.72159 9.55557 8.83147C9.39112 8.94135 9.19778 9 9 9C8.73478 9 8.48043 8.89464 8.29289 8.70711C8.10536 8.51957 8 8.26522 8 8ZM12 8C12 7.80222 12.0586 7.60888 12.1685 7.44443C12.2784 7.27998 12.4346 7.15181 12.6173 7.07612C12.8 7.00043 13.0011 6.98063 13.1951 7.01921C13.3891 7.0578 13.5673 7.15304 13.7071 7.29289C13.847 7.43275 13.9422 7.61093 13.9808 7.80491C14.0194 7.99889 13.9996 8.19996 13.9239 8.38268C13.8482 8.56541 13.72 8.72159 13.5556 8.83147C13.3911 8.94135 13.1978 9 13 9C12.7348 9 12.4804 8.89464 12.2929 8.70711C12.1054 8.51957 12 8.26522 12 8ZM8 12C8 11.8022 8.05865 11.6089 8.16853 11.4444C8.27841 11.28 8.43459 11.1518 8.61732 11.0761C8.80004 11.0004 9.00111 10.9806 9.19509 11.0192C9.38907 11.0578 9.56725 11.153 9.70711 11.2929C9.84696 11.4327 9.9422 11.6109 9.98079 11.8049C10.0194 11.9989 9.99957 12.2 9.92388 12.3827C9.84819 12.5654 9.72002 12.7216 9.55557 12.8315C9.39112 12.9414 9.19778 13 9 13C8.73478 13 8.48043 12.8946 8.29289 12.7071C8.10536 12.5196 8 12.2652 8 12ZM12 12C12 11.8022 12.0586 11.6089 12.1685 11.4444C12.2784 11.28 12.4346 11.1518 12.6173 11.0761C12.8 11.0004 13.0011 10.9806 13.1951 11.0192C13.3891 11.0578 13.5673 11.153 13.7071 11.2929C13.847 11.4327 13.9422 11.6109 13.9808 11.8049C14.0194 11.9989 13.9996 12.2 13.9239 12.3827C13.8482 12.5654 13.72 12.7216 13.5556 12.8315C13.3911 12.9414 13.1978 13 13 13C12.7348 13 12.4804 12.8946 12.2929 12.7071C12.1054 12.5196 12 12.2652 12 12Z" fill="#767676"/>
</svg>
