<svg width="100" height="16" viewBox="0 0 100 16" fill="none" xmlns="http://www.w3.org/2000/svg">
<path fill-rule="evenodd" clip-rule="evenodd" d="M14.4364 11.5552L11.8253 10.0545C11.0599 11.6152 9.52925 12.5606 7.69844 12.5606C5.05726 12.5606 3.06137 10.6097 3.06137 7.75846C3.06137 4.9222 5.05726 2.95632 7.69844 2.95632C9.52925 2.95632 11.0599 3.90174 11.8253 5.46244L14.4364 3.96177C13.1309 1.5607 10.5797 0 7.69844 0C3.48156 0 0 3.22644 0 7.75846C0 12.2905 3.48156 15.5169 7.69844 15.5169C10.5797 15.5169 13.1309 13.9562 14.4364 11.5552ZM28.4527 8.80895V15.1268H31.409V0.375186H28.4527V5.85263H21.0694V0.375186H18.1131V15.1268H21.0694V8.80895H28.4527ZM51.4281 15.1268H48.2016L46.746 11.7503H39.0325L37.5769 15.1268H34.3504L40.8784 0.375186H44.8852L51.4281 15.1268ZM45.5755 9.01905L42.9043 2.80627L40.2331 9.01905H45.5755ZM57.1153 3.51159L65.0238 15.1268H67.65V0.375186H64.9038V10.1596L58.2708 0.375186H54.3691V15.1268H57.1153V3.51159ZM73.3527 15.1268V0.375186H83.8874V3.12142H76.0839V6.28783H82.8219V9.03405H76.0839V12.4106H84.3076V15.1568H73.3527V15.1268ZM89.0499 0.375186V15.1268V15.1418H99.8097V12.1855H92.0062V0.375186H89.0499Z" fill="black"/>
</svg>
